<?xml version="1.0" encoding="utf-8"?>
<!-- Generator: Adobe Illustrator 22.0.1, SVG Export Plug-In . SVG Version: 6.00 Build 0)  -->
<svg version="1.1" id="Layer_1" xmlns="http://www.w3.org/2000/svg" xmlns:xlink="http://www.w3.org/1999/xlink" x="0px" y="0px"
	 viewBox="0 0 281.4 78.9" style="enable-background:new 0 0 281.4 78.9;" xml:space="preserve">
<style type="text/css">
	.st0{fill:#F2F2F2;}
	.st1{fill:#4772F6;}
</style>
<title>MB-logo-1</title>
<g id="Layer_2_1_">
	<g id="Layer_1-2">
		<path class="st0" d="M102.8,0h0.7c9.9,0,17.9,8,17.9,17.9l0,0v42.8c0,10.1-8.1,18.2-18.2,18.2l0,0c-10.1,0-18.2-8.1-18.2-18.2
			V17.9C84.9,8,92.9,0,102.8,0z"/>
		<path class="st1" d="M91,60.7c0,6.7,5.4,12.1,12.1,12.1l0,0h0.9c6.2,0,11.2-5.4,11.2-12.1s-5-12.1-11.2-12.1h-0.9
			C96.4,48.5,91,54,91,60.7C91,60.7,91,60.7,91,60.7z"/>
		<path class="st0" d="M18.2,0L18.2,0c10.1,0,18.2,8.1,18.2,18.2v42.5c0,10.1-8.1,18.2-18.2,18.2l0,0C8.1,78.9,0,70.7,0,60.7V18.2
			C0,8.1,8.1,0,18.2,0z"/>
		<path class="st0" d="M60.7,0L60.7,0c10.1,0,18.2,8.1,18.2,18.2v42.5c0,10.1-8.1,18.2-18.2,18.2l0,0c-10.1,0-18.2-8.1-18.2-18.2
			V18.2C42.5,8.1,50.6,0,60.7,0z"/>
		<path class="st0" d="M192.8,36.7c-1.6,0-3.2-0.3-4.8-0.9c-1.4-0.6-2.7-1.4-3.8-2.5c-1.1-1.1-1.9-2.3-2.5-3.7
			c-0.6-1.4-0.9-3-0.9-4.5V25c0-1.6,0.3-3.1,0.9-4.6c1.9-4.4,6.3-7.3,11.1-7.2c1.6,0,3.3,0.3,4.8,0.9c2.8,1.1,5.1,3.4,6.3,6.2
			c0.6,1.4,0.9,3,0.9,4.6V25c0,1.6-0.3,3.1-0.9,4.5c-0.6,1.4-1.4,2.7-2.5,3.7c-1.1,1.1-2.4,1.9-3.8,2.5
			C196.1,36.4,194.4,36.7,192.8,36.7z M192.9,32.2c1,0,1.9-0.2,2.8-0.6c0.8-0.4,1.5-0.9,2.1-1.5c0.6-0.7,1.1-1.4,1.4-2.3
			c0.3-0.9,0.5-1.8,0.5-2.8V25c0-1-0.2-1.9-0.5-2.8c-0.3-0.9-0.8-1.6-1.4-2.3c-0.6-0.7-1.3-1.2-2.2-1.5c-1.8-0.8-3.8-0.8-5.6,0
			c-0.8,0.4-1.5,0.9-2.1,1.5c-0.6,0.7-1.1,1.4-1.4,2.3c-0.3,0.9-0.5,1.8-0.5,2.8V25c0,1,0.2,1.9,0.5,2.8c0.3,0.8,0.8,1.6,1.4,2.3
			c0.6,0.7,1.3,1.2,2.2,1.6C191,32.1,191.9,32.2,192.9,32.2z"/>
		<path class="st0" d="M245.4,36.7c-1.6,0-3.1-0.3-4.5-0.8c-1.4-0.5-2.6-1.4-3.7-2.4c-1.1-1.1-1.9-2.3-2.4-3.7
			c-0.6-1.5-0.9-3.1-0.9-4.8v0c0-1.6,0.3-3.1,0.8-4.6c0.5-1.4,1.3-2.7,2.3-3.7c1-1.1,2.2-1.9,3.5-2.5c1.4-0.6,2.9-0.9,4.4-0.9
			c1.6,0,3.2,0.3,4.7,1c1.3,0.6,2.5,1.5,3.4,2.6c0.9,1.2,1.6,2.5,2,3.9c0.5,1.5,0.7,3.1,0.7,4.6c0,0.2,0,0.5,0,0.7s0,0.5-0.1,0.8
			H239c0.3,3.3,3.1,5.8,6.5,5.7c1.1,0,2.3-0.2,3.3-0.7c1-0.5,2-1.2,2.8-2l3,2.7c-1.1,1.3-2.4,2.3-3.9,3.1
			C249.1,36.4,247.2,36.8,245.4,36.7z M250.5,23.4c-0.1-0.8-0.2-1.6-0.5-2.4c-0.3-0.7-0.7-1.3-1.2-1.9c-1-1.1-2.5-1.8-4-1.7
			c-1.5,0-2.9,0.6-3.9,1.6c-1.1,1.2-1.8,2.7-1.9,4.3L250.5,23.4z"/>
		<path class="st0" d="M265,43.2c-1,0-1.9-0.1-2.9-0.4c-0.9-0.2-1.7-0.6-2.5-1l1.8-3.8c0.5,0.2,1,0.5,1.5,0.6c0.5,0.2,1,0.2,1.6,0.2
			c0.7,0,1.3-0.2,1.8-0.5c0.6-0.5,1.1-1.2,1.4-2l-9.4-22.5h5.5l6.4,16.7l5.9-16.8h5.4l-9,23.2c-0.4,1-0.8,2-1.4,2.9
			c-0.4,0.7-1,1.4-1.6,2c-0.6,0.5-1.3,0.9-2,1.1C266.6,43,265.8,43.2,265,43.2z"/>
		<path class="st0" d="M203.6,76c-0.9,0-1.8-0.1-2.6-0.3c-0.8-0.2-1.5-0.6-2.1-1.1c-0.6-0.5-1.1-1.2-1.4-2c-0.3-1-0.5-2.1-0.5-3.1
			V57.5h-2.9v-4.4h2.9v-6.2h5.2v6.2h6.1v4.4h-6.1v11c-0.1,0.8,0.2,1.6,0.7,2.2c0.6,0.5,1.3,0.7,2.1,0.7c1.1,0,2.2-0.3,3.2-0.8v4.2
			c-0.7,0.4-1.4,0.7-2.1,0.8C205.3,75.9,204.5,76,203.6,76z"/>
		<path class="st0" d="M221.5,76c-0.9,0-1.8-0.1-2.6-0.3c-0.8-0.2-1.5-0.6-2.1-1.1c-0.6-0.5-1.1-1.2-1.4-2c-0.3-1-0.5-2.1-0.5-3.1
			V57.5h-2.9v-4.4h2.9v-6.2h5.2v6.2h6.1v4.4h-6.1v11c-0.1,0.8,0.2,1.6,0.7,2.2c0.6,0.5,1.3,0.7,2,0.7c1.1,0,2.2-0.3,3.2-0.8v4.2
			c-0.7,0.4-1.4,0.7-2.1,0.8C223.2,75.9,222.3,76,221.5,76z"/>
		<path class="st0" d="M241.3,76.2c-1.6,0-3.3-0.3-4.8-0.9c-1.4-0.6-2.7-1.4-3.8-2.5c-1.1-1.1-1.9-2.3-2.5-3.7
			c-0.6-1.4-0.9-3-0.9-4.5v-0.1c0-1.6,0.3-3.1,0.9-4.6c0.6-1.4,1.4-2.7,2.5-3.7c1.1-1.1,2.4-1.9,3.8-2.5c1.5-0.6,3.2-1,4.8-0.9
			c1.6,0,3.3,0.3,4.8,0.9c4.4,1.8,7.2,6,7.2,10.8v0.1c0,1.6-0.3,3.1-0.9,4.5c-0.6,1.4-1.4,2.7-2.5,3.7c-1.1,1.1-2.4,1.9-3.8,2.5
			C244.6,75.8,242.9,76.2,241.3,76.2z M241.4,71.7c1.9,0,3.7-0.7,5-2.1c0.6-0.7,1.1-1.4,1.4-2.3c0.3-0.9,0.5-1.8,0.5-2.8v-0.1
			c0-1-0.2-1.9-0.5-2.8c-0.3-0.9-0.8-1.6-1.4-2.3c-0.6-0.7-1.4-1.2-2.2-1.5c-1.8-0.8-3.8-0.8-5.6,0c-0.8,0.4-1.5,0.9-2.1,1.5
			c-0.6,0.7-1,1.4-1.3,2.3c-0.3,0.9-0.5,1.8-0.5,2.8v0.1c0,1,0.2,1.9,0.5,2.8c0.3,0.9,0.8,1.6,1.4,2.3c0.6,0.7,1.3,1.2,2.2,1.6
			C239.5,71.5,240.4,71.7,241.4,71.7z"/>
		<path class="st0" d="M277,75.6h-5.1V63.1c0.2-2.6-1.8-4.8-4.4-5c-2.6-0.2-4.8,1.8-5,4.4c0,0.2,0,0.4,0,0.6v12.5h-5.2V63.1
			c-0.2-5.4,4.1-10,9.5-10.2c5.4-0.2,10,4.1,10.2,9.5c0,0.2,0,0.4,0,0.6V75.6z"/>
		<path class="st0" d="M179.7,76.3c-5.5-0.1-9.9-4.6-9.9-10.1c0,0,0,0,0,0V53.7h5.2v12.5c-0.2,2.6,1.8,4.8,4.4,5
			c2.6,0.2,4.8-1.8,5-4.4c0-0.2,0-0.4,0-0.6V53.7h5.2v12.5C189.7,71.6,185.3,76.2,179.7,76.3C179.7,76.3,179.7,76.3,179.7,76.3z"/>
		<path class="st0" d="M229.2,36.2h-5.2V23.7c0.2-2.6-1.8-4.8-4.4-5c-2.6-0.2-4.8,1.8-5,4.4c0,0.2,0,0.4,0,0.6v12.5h-5.2V23.7
			c0-5.4,4.4-9.9,9.9-9.9s9.9,4.4,9.9,9.9V36.2z"/>
		<path class="st0" d="M166.9,13.6c-2.8,0-5.5,1.2-7.3,3.4c-1.8-2.1-4.5-3.4-7.3-3.4c-5.5,0.1-9.9,4.6-9.9,10.1c0,0,0,0,0,0v12.5
			h5.2V23.7c-0.2-2.6,1.8-4.8,4.4-5c2.6-0.2,4.8,1.8,5,4.4c0,0.2,0,0.4,0,0.6v12.5h5.1V23.7c-0.1-2.6,1.9-4.8,4.5-4.9
			c2.6-0.1,4.8,1.9,4.9,4.5c0,0.1,0,0.3,0,0.4v12.5h5.1V23.7C176.9,18.2,172.5,13.7,166.9,13.6C166.9,13.6,166.9,13.6,166.9,13.6z"
			/>
		<path class="st0" d="M165.2,59.8c-1.2-2.8-3.4-5.1-6.2-6.2c-1.5-0.6-3.1-0.9-4.8-0.9c-1.6,0-3.3,0.3-4.8,0.9
			c-0.7,0.3-1.4,0.7-2,1.1V44.5h-5.1V63h0.1c-0.1,0.5-0.1,0.9-0.1,1.4v0.1c0,1.5,0.3,3.1,0.8,4.5c0.6,1.4,1.4,2.7,2.5,3.7
			c1.1,1.1,2.4,1.9,3.8,2.5c1.5,0.6,3.1,0.9,4.8,0.9c1.7,0,3.3-0.3,4.8-0.9c1.4-0.6,2.7-1.5,3.8-2.5c1.1-1.1,1.9-2.3,2.5-3.7
			c0.6-1.4,0.9-3,0.9-4.5v-0.1C166.1,62.8,165.8,61.2,165.2,59.8z M160.9,64.5c0,0.9-0.1,1.9-0.5,2.8c-0.3,0.8-0.8,1.6-1.4,2.3
			c-0.6,0.7-1.3,1.2-2.1,1.5c-0.9,0.4-1.8,0.6-2.8,0.6c-0.9,0-1.9-0.2-2.7-0.6c-0.8-0.4-1.6-0.9-2.2-1.6c-0.6-0.7-1.1-1.5-1.4-2.3
			c-0.3-0.9-0.5-1.8-0.5-2.8v-0.1c0-0.9,0.1-1.9,0.5-2.8c0.3-0.9,0.7-1.6,1.4-2.3c0.6-0.6,1.3-1.2,2.1-1.5c1.8-0.8,3.8-0.8,5.6,0
			c0.8,0.4,1.5,0.9,2.1,1.6c0.6,0.7,1.1,1.5,1.4,2.3C160.8,62.5,160.9,63.5,160.9,64.5L160.9,64.5z"/>
	</g>
</g>
</svg>
